<svg width="22" height="23" viewBox="0 0 22 23" fill="none" xmlns="http://www.w3.org/2000/svg">
<path d="M11 18.6875C14.797 18.6875 17.875 15.4695 17.875 11.5C17.875 7.53045 14.797 4.3125 11 4.3125C7.20304 4.3125 4.125 7.53045 4.125 11.5C4.125 15.4695 7.20304 18.6875 11 18.6875Z" fill="#5C7B43"/>
<path d="M11 21.5625C9.09636 21.5625 7.23546 20.9723 5.65264 19.8667C4.06982 18.761 2.83616 17.1894 2.10766 15.3508C1.37917 13.5121 1.18856 11.4888 1.55995 9.53691C1.93133 7.58497 2.84802 5.79201 4.1941 4.38474C5.54018 2.97748 7.25519 2.01912 9.12226 1.63085C10.9893 1.24259 12.9246 1.44186 14.6833 2.20347C16.4421 2.96507 17.9453 4.25481 19.0029 5.90958C20.0605 7.56435 20.625 9.50983 20.625 11.5C20.6221 14.1678 19.6071 16.7255 17.8027 18.6119C15.9983 20.4983 13.5518 21.5595 11 21.5625ZM11 2.875C9.36831 2.875 7.77326 3.38085 6.41655 4.32858C5.05984 5.27631 4.00242 6.62335 3.378 8.19936C2.75358 9.77537 2.5902 11.5096 2.90853 13.1827C3.22685 14.8557 4.01259 16.3926 5.16637 17.5988C6.32016 18.805 7.79017 19.6265 9.39051 19.9593C10.9909 20.2921 12.6497 20.1213 14.1571 19.4685C15.6646 18.8157 16.9531 17.7102 17.8596 16.2918C18.7661 14.8734 19.25 13.2059 19.25 11.5C19.2475 9.21333 18.3774 7.02107 16.8308 5.40415C15.2842 3.78723 13.1873 2.87767 11 2.875Z" fill="#5C7B43"/>
</svg>
