<svg width="37" height="37" viewBox="0 0 37 37" fill="none" xmlns="http://www.w3.org/2000/svg">
<path d="M18.5 2.3125C12.1168 2.3125 6.9375 6.97436 6.9375 12.7188C6.9375 21.9688 18.5 34.6875 18.5 34.6875C18.5 34.6875 30.0625 21.9688 30.0625 12.7188C30.0625 6.97436 24.8832 2.3125 18.5 2.3125ZM18.5 18.5C17.5853 18.5 16.6911 18.2287 15.9305 17.7205C15.1699 17.2123 14.5771 16.49 14.2271 15.6449C13.877 14.7998 13.7854 13.8699 13.9639 12.9727C14.1423 12.0755 14.5828 11.2514 15.2296 10.6046C15.8764 9.95781 16.7005 9.51732 17.5977 9.33887C18.4949 9.16041 19.4248 9.252 20.2699 9.60206C21.115 9.95211 21.8373 10.5449 22.3455 11.3055C22.8537 12.0661 23.125 12.9603 23.125 13.875C23.1237 15.1012 22.636 16.2768 21.7689 17.1439C20.9018 18.011 19.7262 18.4987 18.5 18.5Z" fill="#FF7B00"/>
</svg>
