<svg width="37" height="37" viewBox="0 0 37 37" fill="none" xmlns="http://www.w3.org/2000/svg">
<path d="M22.3541 15.4167C22.3541 14.1972 23.9775 13.8735 24.4076 15.0158C25.4498 17.7754 26.2083 20.2483 26.2083 21.5833C26.2083 23.6277 25.3962 25.5884 23.9506 27.034C22.505 28.4795 20.5443 29.2917 18.5 29.2917C16.4556 29.2917 14.4949 28.4795 13.0493 27.034C11.6038 25.5884 10.7916 23.6277 10.7916 21.5833C10.7916 20.1496 11.6673 17.4039 12.8297 14.3945C14.3328 10.4972 15.0852 8.54855 16.0148 8.44371C16.3108 8.4098 16.6361 8.46992 16.9013 8.60867C17.7291 9.04034 17.7291 11.1663 17.7291 15.4167C17.7291 16.03 17.9728 16.6182 18.4064 17.0519C18.8401 17.4855 19.4283 17.7292 20.0416 17.7292C20.6549 17.7292 21.2431 17.4855 21.6768 17.0519C22.1105 16.6182 22.3541 16.03 22.3541 15.4167Z" stroke="#5C7B43" stroke-width="2"/>
<path d="M16.9583 29.2916L16.5528 28.2788C16.2078 27.4162 16.0978 26.4775 16.234 25.5586C16.3702 24.6396 16.7478 23.7732 17.3283 23.0479C17.4688 22.8721 17.6471 22.7302 17.8499 22.6327C18.0527 22.5351 18.2749 22.4845 18.4999 22.4845C18.725 22.4845 18.9472 22.5351 19.15 22.6327C19.3528 22.7302 19.5311 22.8721 19.6716 23.0479C20.8525 24.5248 21.1485 26.5228 20.4471 28.2788L20.0416 29.2916" stroke="#5C7B43" stroke-width="2"/>
</svg>
