<svg width="28" height="28" viewBox="0 0 28 28" fill="none" xmlns="http://www.w3.org/2000/svg">
<path d="M12.1109 13.5946L5.06787 6.56275C4.85736 6.35224 4.73909 6.06672 4.73909 5.76901C4.73909 5.4713 4.85736 5.18578 5.06787 4.97526C5.27839 4.76475 5.5639 4.64648 5.86162 4.64648C6.15933 4.64648 6.44484 4.76475 6.65536 4.97526L13.6873 12.0183L20.7192 4.97526C20.9297 4.76475 21.2152 4.64648 21.5129 4.64648C21.8106 4.64648 22.0961 4.76475 22.3066 4.97526C22.5172 5.18578 22.6354 5.4713 22.6354 5.76901C22.6354 6.06672 22.5172 6.35224 22.3066 6.56275L15.2636 13.5946L22.3066 20.6265C22.4114 20.7305 22.4946 20.8541 22.5514 20.9904C22.6081 21.1266 22.6373 21.2727 22.6373 21.4203C22.6373 21.5679 22.6081 21.714 22.5514 21.8502C22.4946 21.9865 22.4114 22.1101 22.3066 22.214C22.2027 22.3188 22.0791 22.402 21.9428 22.4587C21.8066 22.5155 21.6605 22.5447 21.5129 22.5447C21.3653 22.5447 21.2192 22.5155 21.083 22.4587C20.9467 22.402 20.8231 22.3188 20.7192 22.214L13.6873 15.171L6.65536 22.214C6.55143 22.3188 6.42778 22.402 6.29155 22.4587C6.15532 22.5155 6.0092 22.5447 5.86162 22.5447C5.71403 22.5447 5.56791 22.5155 5.43168 22.4587C5.29545 22.402 5.1718 22.3188 5.06787 22.214C4.96309 22.1101 4.87992 21.9865 4.82316 21.8502C4.76641 21.714 4.73718 21.5679 4.73718 21.4203C4.73718 21.2727 4.76641 21.1266 4.82316 20.9904C4.87992 20.8541 4.96309 20.7305 5.06787 20.6265L12.1109 13.5946Z" fill="black"/>
</svg>
