<svg width="25" height="25" viewBox="0 0 25 25" fill="none" xmlns="http://www.w3.org/2000/svg">
<path d="M16.335 3.94727C16.162 3.05675 15.6848 2.25404 14.9853 1.6765C14.2857 1.09896 13.4072 0.782489 12.5 0.78125C12.2928 0.78125 12.0941 0.86356 11.9476 1.01007C11.8011 1.15659 11.7188 1.3553 11.7188 1.5625C11.7188 1.7697 11.8011 1.96841 11.9476 2.11493C12.0941 2.26144 12.2928 2.34375 12.5 2.34375C12.9963 2.34375 13.4798 2.50129 13.8808 2.79367C14.2818 3.08606 14.5797 3.49819 14.7315 3.9707C13.2448 4.18709 11.8856 4.93107 10.9022 6.06673C9.91876 7.2024 9.37669 8.65395 9.375 10.1562C9.375 14.7217 6.86036 17.7734 1.90137 19.2383C1.56217 19.3372 1.26649 19.5481 1.06258 19.8366C0.858678 20.1252 0.758587 20.4743 0.778644 20.8271C0.798701 21.1798 0.937721 21.5153 1.17302 21.7789C1.40832 22.0425 1.726 22.2185 2.07422 22.2783C3.54202 22.5321 5.02899 22.6585 6.51856 22.6562C10.501 22.6562 14.9326 21.7627 17.9961 19.1934C20.5703 17.0352 21.875 13.9941 21.875 10.1562C21.8734 8.6221 21.3082 7.14202 20.2868 5.9973C19.2654 4.85258 17.859 4.12302 16.335 3.94727ZM15.625 5.46875C16.6004 5.47005 17.5512 5.77515 18.3452 6.34166C19.1393 6.90818 19.7371 7.70797 20.0557 8.62988L18.75 9.27734L15.9746 7.89355C15.8661 7.83924 15.7464 7.81096 15.625 7.81096C15.5036 7.81096 15.3839 7.83924 15.2754 7.89355L12.5 9.27734L11.1943 8.625C11.5139 7.70407 12.1121 6.90543 12.906 6.33986C13.6999 5.77429 14.6502 5.46984 15.625 5.46875ZM16.9922 17.998C15.2344 19.4697 12.7344 20.4648 9.75391 20.876C7.29094 21.2016 4.79303 21.1556 2.34375 20.7393C7.93262 19.0918 10.9014 15.4658 10.9375 10.249L12.1523 10.8564C12.2609 10.9108 12.3806 10.939 12.502 10.939C12.6233 10.939 12.743 10.9108 12.8516 10.8564L15.625 9.46582L18.4004 10.8535C18.5089 10.9078 18.6286 10.9361 18.75 10.9361C18.8714 10.9361 18.9911 10.9078 19.0996 10.8535L20.3115 10.248C20.291 13.5586 19.1748 16.166 16.9922 17.9971V17.998Z" fill="#5C7B43"/>
</svg>
