<svg width="39" height="35" viewBox="0 0 39 35" fill="none" xmlns="http://www.w3.org/2000/svg">
<path d="M19.2643 29.6594L19.0736 29.8501L18.8638 29.6594C9.80381 21.4387 3.81471 16.0027 3.81471 10.4905C3.81471 6.67575 6.67575 3.81471 10.4905 3.81471C13.4278 3.81471 16.2888 5.72207 17.2997 8.31608H20.8474C21.8583 5.72207 24.7193 3.81471 27.6567 3.81471C31.4714 3.81471 34.3324 6.67575 34.3324 10.4905C34.3324 16.0027 28.3433 21.4387 19.2643 29.6594ZM27.6567 0C24.3379 0 21.1526 1.54496 19.0736 3.9673C16.9945 1.54496 13.8093 0 10.4905 0C4.6158 0 0 4.59673 0 10.4905C0 17.6812 6.48501 23.5749 16.3079 32.4823L19.0736 35L21.8392 32.4823C31.6621 23.5749 38.1471 17.6812 38.1471 10.4905C38.1471 4.59673 33.5313 0 27.6567 0Z" fill="black"/>
</svg>
