<svg width="35" height="35" viewBox="0 0 35 35" fill="none" xmlns="http://www.w3.org/2000/svg">
<path d="M24.8078 18.7905C26.0865 18.7905 27.2118 18.0922 27.7915 17.0363L33.8954 5.9827C34.5262 4.8586 33.7079 3.46201 32.4121 3.46201H7.17805L5.57535 0.0556641H0V3.46201H3.41L9.548 16.3891L7.24625 20.5448C6.0016 22.8271 7.6384 25.6032 10.23 25.6032H30.69V22.1969H10.23L12.1055 18.7905H24.8078ZM8.7978 6.86835H29.5135L24.8078 15.3842H12.8386L8.7978 6.86835ZM10.23 27.3064C8.3545 27.3064 6.83705 28.8392 6.83705 30.7127C6.83705 32.5862 8.3545 34.1191 10.23 34.1191C12.1055 34.1191 13.64 32.5862 13.64 30.7127C13.64 28.8392 12.1055 27.3064 10.23 27.3064ZM27.28 27.3064C25.4045 27.3064 23.8871 28.8392 23.8871 30.7127C23.8871 32.5862 25.4045 34.1191 27.28 34.1191C29.1555 34.1191 30.69 32.5862 30.69 30.7127C30.69 28.8392 29.1555 27.3064 27.28 27.3064Z" fill="white"/>
</svg>
