<svg width="42" height="42" viewBox="0 0 42 42" fill="none" xmlns="http://www.w3.org/2000/svg">
<path d="M12.6117 42C11.4556 42 10.4656 41.5884 9.64161 40.7652C8.81765 39.942 8.40637 38.9536 8.40777 37.8C8.40777 36.645 8.81975 35.6559 9.64371 34.8327C10.4677 34.0095 11.457 33.5986 12.6117 33.6C13.7677 33.6 14.7577 34.0116 15.5817 34.8348C16.4057 35.658 16.8169 36.6464 16.8155 37.8C16.8155 38.955 16.4036 39.9441 15.5796 40.7673C14.7556 41.5905 13.7663 42.0014 12.6117 42ZM33.6311 42C32.475 42 31.485 41.5884 30.661 40.7652C29.8371 39.942 29.4258 38.9536 29.4272 37.8C29.4272 36.645 29.8392 35.6559 30.6631 34.8327C31.4871 34.0095 32.4764 33.5986 33.6311 33.6C34.7871 33.6 35.7772 34.0116 36.6011 34.8348C37.4251 35.658 37.8364 36.6464 37.835 37.8C37.835 38.955 37.423 39.9441 36.599 40.7673C35.7751 41.5905 34.7857 42.0014 33.6311 42ZM10.825 8.4L15.8697 18.9H30.5833L36.3636 8.4H10.825ZM8.82816 4.2H39.8318C40.6375 4.2 41.2506 4.5591 41.671 5.2773C42.0914 5.9955 42.1089 6.7214 41.7235 7.455L34.2617 20.895C33.8763 21.595 33.3592 22.1375 32.7104 22.5225C32.0616 22.9075 31.3526 23.1 30.5833 23.1H14.9238L12.6117 27.3H37.835V31.5H12.6117C11.0352 31.5 9.8441 30.8084 9.03835 29.4252C8.23261 28.042 8.19757 26.6686 8.93325 25.305L11.7709 20.16L4.20388 4.2H0V0H6.83131L8.82816 4.2Z" fill="white"/>
</svg>
