<svg width="43" height="33" viewBox="0 0 43 33" fill="none" xmlns="http://www.w3.org/2000/svg">
<g clip-path="url(#clip0_3284_1631)">
<path d="M37.0205 16.4856C36.8148 17.2058 36.9943 17.7054 37.559 17.9846C38.1571 18.2799 38.2721 18.5559 37.7809 19.0315C36.9907 19.7955 36.1559 20.5429 35.2371 21.1281C32.6744 22.7588 29.8559 23.7973 26.9644 24.6307C23.3178 25.6804 19.6172 26.4001 15.8082 26.2087C14.9517 26.1657 14.1006 25.8842 13.2617 25.6554C12.8301 25.5376 12.7286 25.1992 13.0331 24.8235C13.2902 24.5059 13.3727 24.2161 13.1724 23.8071C13.0019 23.459 12.9356 23.1013 12.5473 22.8683C10.9791 21.9254 9.43658 20.9381 7.88459 19.9661C5.88745 18.7167 3.8876 17.4702 1.89451 16.2139C1.49129 15.9587 1.04883 15.7757 0.692972 16.1612C-0.036338 16.9502 -0.444968 17.7835 0.809337 18.4685C3.9566 20.1893 7.07545 21.9684 10.2051 23.7239C10.7464 24.0275 11.2876 24.334 11.6191 24.5212C11.7625 25.1673 11.7314 25.7262 11.9858 26.0451C12.803 27.0698 13.6271 28.132 14.6256 28.9556C18.4982 32.1546 22.9254 33.0822 27.7383 31.9147C33.9057 30.4185 38.6212 25.0689 39.1976 18.6613C39.249 18.0886 39.1042 17.6074 38.6401 17.3135C38.1354 16.9945 37.5766 16.763 37.0245 16.4843L37.0205 16.4856ZM14.3293 8.0896C15.7216 9.35143 16.1912 10.9114 16.1952 12.6225C16.1993 14.0244 15.7081 15.2973 14.9111 16.4316C13.8097 17.9985 13.3456 19.7401 13.4891 21.6564C13.5662 22.677 13.8192 23.6462 14.3564 24.6016C14.4484 24.4394 14.512 24.3451 14.558 24.2425C15.7352 21.6023 17.6525 19.8052 20.3383 18.8609C20.5197 18.7972 20.7172 18.567 20.7713 18.3756C22.073 13.7526 27.1849 12.0082 30.9384 14.916C31.0385 14.9936 31.1508 15.0533 31.2848 15.1378C32.3862 13.0426 33.47 10.9932 34.5335 8.93267C34.5998 8.80371 34.5565 8.56244 34.4834 8.41546C33.7853 7.02744 32.8029 5.86822 31.6366 4.87955C31.186 4.49684 30.6678 4.19733 30.1807 3.86038C30.4147 4.30826 30.707 4.66878 30.937 5.06813C31.2902 5.68241 31.4377 6.35354 31.2415 7.05933C30.933 8.17557 30.2009 8.89523 29.1104 9.11293C27.8872 9.35698 26.8697 8.83422 26.1336 7.85665C24.9334 6.26064 24.8292 4.41087 25.2108 2.52505C25.3853 1.66396 25.7466 0.841685 26.0253 0C25.8833 0.0360524 25.7047 0.0734914 25.5301 0.128957C23.8036 0.668356 22.1312 1.32978 20.9296 2.79545C19.8323 4.13493 19.3695 5.40786 20.2896 7.05656C20.3559 7.17581 20.406 7.30616 20.4642 7.42956C20.7592 8.05355 20.8674 8.7122 20.77 9.39442C20.6929 9.94214 20.4994 10.4607 19.9378 10.6576C19.4304 10.8351 19.0813 10.4732 18.7444 10.1543C18.398 9.82566 18.0719 9.47207 17.7134 9.15869C16.7703 8.33781 15.6662 8.0175 14.3293 8.0896ZM27.097 23.7641C23.7346 20.8702 19.425 22.6298 18.2357 25.4461C21.253 25.2381 24.1676 24.639 27.097 23.7641ZM32.1562 16.2901C32.2035 16.2208 32.2549 16.1542 32.2969 16.0821C35.0125 11.3801 37.72 6.67385 40.4492 1.98011C40.7563 1.45319 40.4099 1.33671 40.0974 1.12594C39.7388 0.883283 39.5778 1.04691 39.4046 1.37692C36.9366 6.08037 34.4632 10.7824 31.9762 15.4762C31.7841 15.8395 31.8179 16.0697 32.1562 16.2915V16.2901ZM32.535 16.4787C32.9802 16.7033 33.1818 16.4926 33.3793 16.1945C34.7013 14.213 36.0314 12.2384 37.3615 10.2625C38.9405 7.91766 40.525 5.57564 42.0932 3.22253C42.2095 3.04781 42.33 2.73443 42.2555 2.59161C41.9687 2.03835 41.4302 2.05083 41.1068 2.57359C38.7457 6.39375 36.3832 10.2153 34.0234 14.0369C33.5295 14.8356 33.0451 15.6412 32.535 16.4787ZM29.3553 22.9557C27.8358 20.8619 24.6033 19.4489 21.4939 20.1838C18.4251 20.909 16.2615 23.4964 15.838 25.4114C16.202 25.5084 16.455 25.4627 16.6444 25.0509C18.8229 20.2892 24.7359 19.1965 28.4176 22.8739C28.7288 23.1845 28.9899 23.2496 29.3566 22.9543L29.3553 22.9557ZM30.3796 16.512C29.0657 15.325 27.6139 14.7926 25.9293 15.1891C24.2217 15.5927 23.0513 16.6673 22.4018 18.3756C22.9254 18.4713 23.2529 18.3756 23.5479 17.8778C24.702 15.9338 27.0902 15.3126 28.9602 16.469C29.4365 16.763 29.8289 16.8337 30.3796 16.512ZM28.7707 20.2004C31.1346 18.2661 32.5458 18.2966 35.0342 20.3044C35.5294 19.9245 35.5619 19.6832 35.1329 19.295C33.8434 18.126 32.3537 17.7017 30.6745 18.1246C29.6746 18.3756 28.8262 18.9025 28.1551 19.7817C28.3878 19.9411 28.5678 20.0632 28.7707 20.2018V20.2004ZM33.9801 16.6742C34.6729 17.0805 35.3088 17.4535 36.0625 17.8958V13.589C35.3548 14.6373 34.6783 15.637 33.9801 16.6728V16.6742ZM33.6283 21.2002C32.5364 20.0742 30.8112 20.1464 30.0426 21.2778C30.2875 21.5746 30.5203 21.8907 30.7936 22.1667C30.8883 22.2623 31.1129 22.3289 31.2266 22.2804C32.0154 21.9476 32.7921 21.5815 33.6283 21.2002ZM27.917 17.717C26.8182 17.2247 25.5869 17.5825 25.0105 18.5448C25.4922 18.6918 25.9672 18.854 26.4516 18.9705C26.5801 19.001 26.7804 18.9247 26.8818 18.8263C27.2336 18.4838 27.5557 18.1094 27.917 17.717Z" fill="white"/>
<path d="M37.0203 16.4858C37.5724 16.7645 38.1298 16.9947 38.6359 17.315C39.1 17.609 39.2448 18.0901 39.1933 18.6628C38.6183 25.0691 33.9014 30.4201 27.7341 31.9162C22.9212 33.0838 18.4939 32.1561 14.6214 28.9572C13.6242 28.1335 12.7988 27.0713 11.9815 26.0466C11.7272 25.7277 11.7583 25.1689 11.6149 24.5227C11.2834 24.3355 10.7435 24.0305 10.2009 23.7254C7.07121 21.9699 3.95236 20.1909 0.805095 18.4701C-0.44921 17.7837 -0.0405799 16.9517 0.68873 16.1627C1.04459 15.7786 1.48705 15.9603 1.89027 16.2154C3.88335 17.4717 5.88321 18.7183 7.88035 19.9676C9.43234 20.9383 10.9748 21.9269 12.5431 22.8699C12.9314 23.1028 12.9964 23.4606 13.1682 23.8086C13.3698 24.2177 13.2859 24.5075 13.0288 24.825C12.7244 25.2008 12.8245 25.5391 13.2575 25.657C14.0964 25.8858 14.9475 26.1673 15.804 26.2103C19.6129 26.4002 23.3136 25.6819 26.9601 24.6323C29.8517 23.8003 32.6701 22.7603 35.2329 21.1296C36.1516 20.5445 36.9865 19.7971 37.7767 19.0331C38.2678 18.5588 38.1542 18.2815 37.5548 17.9861C36.9901 17.7079 36.8106 17.2082 37.0162 16.4872L37.0203 16.4858Z" fill="white"/>
<path d="M14.3291 8.0896C15.666 8.0175 16.7701 8.33642 17.7132 9.15869C18.0731 9.47207 18.3978 9.82566 18.7442 10.1543C19.0811 10.4732 19.4302 10.8351 19.9376 10.6576C20.4992 10.4607 20.6927 9.94352 20.7698 9.39442C20.8658 8.7122 20.759 8.05216 20.464 7.42956C20.4044 7.30477 20.3557 7.17581 20.2894 7.05656C19.3707 5.40786 19.8321 4.13493 20.9294 2.79545C22.1296 1.32978 23.8034 0.669742 25.5299 0.128957C25.7045 0.074878 25.8831 0.0360524 26.0251 0C25.7478 0.843071 25.3851 1.66396 25.2106 2.52505C24.8277 4.41087 24.9332 6.26063 26.1334 7.85665C26.8695 8.83422 27.887 9.35698 29.1102 9.11293C30.2008 8.89523 30.9328 8.17696 31.2413 7.05933C31.4361 6.35354 31.29 5.68241 30.9368 5.06813C30.7068 4.66878 30.4145 4.30826 30.1805 3.86038C30.6676 4.19733 31.1858 4.49684 31.6364 4.87955C32.8041 5.86822 33.7851 7.02744 34.4832 8.41546C34.5563 8.56105 34.601 8.80233 34.5333 8.93267C33.4698 10.9932 32.386 13.0426 31.2846 15.1378C31.1506 15.0533 31.0383 14.9936 30.9382 14.916C27.1847 12.0082 22.0714 13.754 20.7711 18.3756C20.717 18.5684 20.5195 18.7985 20.3381 18.8609C17.6523 19.8052 15.735 21.6023 14.5578 24.2425C14.5118 24.3451 14.4482 24.4394 14.3562 24.6016C13.8177 23.6462 13.566 22.6783 13.4889 21.6564C13.3441 19.7401 13.8095 17.9985 14.9109 16.4316C15.7079 15.2973 16.1991 14.0244 16.195 12.6225C16.191 10.9114 15.7214 9.35143 14.3291 8.0896Z" fill="#FD9042"/>
<path d="M27.0954 23.7642C24.166 24.6392 21.2515 25.2382 18.2341 25.4462C19.4235 22.63 23.733 20.8703 27.0954 23.7642Z" fill="#FD9042"/>
<path d="M32.1546 16.2902C31.8163 16.0698 31.7825 15.8382 31.9746 15.4749C34.4616 10.7812 36.935 6.08048 39.403 1.37565C39.5762 1.04563 39.7372 0.882008 40.0958 1.12467C40.4084 1.33544 40.7548 1.45191 40.4476 1.97883C37.7185 6.67257 35.0109 11.3788 32.2953 16.0809C32.2534 16.153 32.2019 16.2195 32.1546 16.2889V16.2902Z" fill="white"/>
<path d="M32.5335 16.4789C33.0436 15.6413 33.5293 14.8357 34.0219 14.037C36.3816 10.2155 38.7428 6.3939 41.1052 2.57374C41.4219 2.06068 41.6086 2.02047 42.2188 2.55987C42.2418 2.58067 42.2648 2.60424 42.277 2.63198C42.3582 2.81501 42.1999 3.05906 42.0916 3.22129C40.5234 5.57441 38.939 7.91504 37.3599 10.2612C36.0298 12.2372 34.6998 14.2117 33.3778 16.1932C33.1789 16.49 32.9786 16.7021 32.5335 16.4775V16.4789Z" fill="white"/>
<path d="M29.3551 22.9557C28.9884 23.251 28.7273 23.1845 28.416 22.8753C24.7343 19.1965 18.8214 20.2906 16.6429 25.0523C16.4535 25.4655 16.2004 25.5099 15.8365 25.4128C16.26 23.4979 18.4235 20.9104 21.4923 20.1852C24.6017 19.4503 27.8356 20.8633 29.3537 22.9571L29.3551 22.9557Z" fill="#FD9042"/>
<path d="M30.3794 16.512C29.8287 16.8337 29.4363 16.7644 28.96 16.469C27.09 15.3126 24.7032 15.9338 23.5477 17.8778C23.2527 18.3756 22.9253 18.4713 22.4016 18.3756C23.0511 16.6673 24.2215 15.5927 25.9291 15.1892C27.6137 14.7912 29.0655 15.3251 30.3794 16.512Z" fill="#FD9042"/>
<path d="M28.7706 20.2005C28.569 20.0632 28.389 19.9398 28.1549 19.7804C28.826 18.9012 29.6744 18.3743 30.6743 18.1233C32.3535 17.7004 33.8433 18.1247 35.1327 19.2937C35.5617 19.6819 35.5306 19.9232 35.034 20.3031C32.5443 18.2953 31.1344 18.2662 28.7706 20.1991V20.2005Z" fill="#FD9042"/>
<path d="M33.9799 16.6744C34.6795 15.6386 35.3546 14.6389 36.0623 13.5906V17.8975C35.3073 17.4551 34.6727 17.0821 33.9799 16.6758V16.6744Z" fill="#FD9042"/>
<path d="M33.6281 21.1988C32.7919 21.5801 32.0152 21.9462 31.2264 22.279C31.1127 22.3275 30.8881 22.2596 30.7934 22.1653C30.5201 21.8893 30.2874 21.5732 30.0424 21.2764C30.811 20.1449 32.5362 20.0728 33.6281 21.1988Z" fill="#FD9042"/>
<path d="M27.9168 17.7158C27.5555 18.1082 27.2335 18.4826 26.8817 18.8251C26.7802 18.9235 26.5799 18.9998 26.4514 18.9693C25.967 18.8542 25.492 18.6906 25.0103 18.5436C25.5868 17.5813 26.8181 17.2235 27.9168 17.7158Z" fill="#FD9042"/>
</g>
<defs>
<clipPath id="clip0_3284_1631">
<rect width="42.3" height="32.4" fill="white"/>
</clipPath>
</defs>
</svg>
