<svg width="313" height="234" viewBox="0 0 313 234" fill="none" xmlns="http://www.w3.org/2000/svg">
<g clip-path="url(#clip0_3247_2733)">
<path d="M273.6 118.89C272.08 124.083 273.406 127.687 277.58 129.7C282 131.83 282.85 133.82 279.22 137.25C273.38 142.76 267.21 148.15 260.42 152.37C241.48 164.13 220.65 171.62 199.28 177.63C172.33 185.2 144.98 190.39 116.83 189.01C110.5 188.7 104.21 186.67 98.0098 185.02C94.8198 184.17 94.0698 181.73 96.3198 179.02C98.2198 176.73 98.8298 174.64 97.3498 171.69C96.0898 169.18 95.5998 166.6 92.7298 164.92C81.1398 158.12 69.7398 151 58.2698 143.99C43.5098 134.98 28.7298 125.99 13.9998 116.93C11.0198 115.09 7.74981 113.77 5.11981 116.55C-0.270193 122.24 -3.29019 128.25 5.97981 133.19C29.2398 145.6 52.2898 158.43 75.4198 171.09C79.4198 173.28 83.4198 175.49 85.8698 176.84C86.9298 181.5 86.6998 185.53 88.5798 187.83C94.6198 195.22 100.71 202.88 108.09 208.82C136.71 231.89 169.43 238.58 205 230.16C250.58 219.37 285.43 180.79 289.69 134.58C290.07 130.45 289 126.98 285.57 124.86C281.84 122.56 277.71 120.89 273.63 118.88L273.6 118.89ZM105.9 58.34C116.19 67.44 119.66 78.69 119.69 91.03C119.72 101.14 116.09 110.32 110.2 118.5C102.06 129.8 98.6298 142.36 99.6898 156.18C100.26 163.54 102.13 170.53 106.1 177.42C106.78 176.25 107.25 175.57 107.59 174.83C116.29 155.79 130.46 142.83 150.31 136.02C151.65 135.56 153.11 133.9 153.51 132.52C163.13 99.18 200.91 86.6 228.65 107.57C229.39 108.13 230.22 108.56 231.21 109.17C239.35 94.06 247.36 79.28 255.22 64.42C255.71 63.49 255.39 61.75 254.85 60.69C249.69 50.68 242.43 42.32 233.81 35.19C230.48 32.43 226.65 30.27 223.05 27.84C224.78 31.07 226.94 33.67 228.64 36.55C231.25 40.98 232.34 45.82 230.89 50.91C228.61 58.96 223.2 64.15 215.14 65.72C206.1 67.48 198.58 63.71 193.14 56.66C184.27 45.15 183.5 31.81 186.32 18.21C187.61 12 190.28 6.07 192.34 0C191.29 0.26 189.97 0.53 188.68 0.93C175.92 4.82 163.56 9.59 154.68 20.16C146.57 29.82 143.15 39 149.95 50.89C150.44 51.75 150.81 52.69 151.24 53.58C153.42 58.08 154.22 62.83 153.5 67.75C152.93 71.7 151.5 75.44 147.35 76.86C143.6 78.14 141.02 75.53 138.53 73.23C135.97 70.86 133.56 68.31 130.91 66.05C123.94 60.13 115.78 57.82 105.9 58.34ZM200.26 171.38C175.41 150.51 143.56 163.2 134.77 183.51C157.07 182.01 178.61 177.69 200.26 171.38ZM237.65 117.48C238 116.98 238.38 116.5 238.69 115.98C258.76 82.07 278.77 48.13 298.94 14.28C301.21 10.48 298.65 9.64 296.34 8.12C293.69 6.37 292.5 7.55 291.22 9.93C272.98 43.85 254.7 77.76 236.32 111.61C234.9 114.23 235.15 115.89 237.65 117.49V117.48ZM240.45 118.84C243.74 120.46 245.23 118.94 246.69 116.79C256.46 102.5 266.29 88.26 276.12 74.01C287.79 57.1 299.5 40.21 311.09 23.24C311.95 21.98 312.84 19.72 312.29 18.69C310.17 14.7 306.19 14.79 303.8 18.56C286.35 46.11 268.89 73.67 251.45 101.23C247.8 106.99 244.22 112.8 240.45 118.84ZM216.95 165.55C205.72 150.45 181.83 140.26 158.85 145.56C136.17 150.79 120.18 169.45 117.05 183.26C119.74 183.96 121.61 183.63 123.01 180.66C139.11 146.32 182.81 138.44 210.02 164.96C212.32 167.2 214.25 167.67 216.96 165.54L216.95 165.55ZM224.52 119.08C214.81 110.52 204.08 106.68 191.63 109.54C179.01 112.45 170.36 120.2 165.56 132.52C169.43 133.21 171.85 132.52 174.03 128.93C182.56 114.91 200.21 110.43 214.03 118.77C217.55 120.89 220.45 121.4 224.52 119.08ZM212.63 145.68C230.1 131.73 240.53 131.95 258.92 146.43C262.58 143.69 262.82 141.95 259.65 139.15C250.12 130.72 239.11 127.66 226.7 130.71C219.31 132.52 213.04 136.32 208.08 142.66C209.8 143.81 211.13 144.69 212.63 145.69V145.68ZM251.13 120.25C256.25 123.18 260.95 125.87 266.52 129.06V98C261.29 105.56 256.29 112.77 251.13 120.24V120.25ZM248.53 152.89C240.46 144.77 227.71 145.29 222.03 153.45C223.84 155.59 225.56 157.87 227.58 159.86C228.28 160.55 229.94 161.03 230.78 160.68C236.61 158.28 242.35 155.64 248.53 152.89ZM206.32 127.77C198.2 124.22 189.1 126.8 184.84 133.74C188.4 134.8 191.91 135.97 195.49 136.81C196.44 137.03 197.92 136.48 198.67 135.77C201.27 133.3 203.65 130.6 206.32 127.77Z" fill="#FD9042"/>
<path d="M273.6 118.89C277.68 120.9 281.8 122.56 285.54 124.87C288.97 126.99 290.04 130.46 289.66 134.59C285.41 180.79 250.55 219.38 204.97 230.17C169.4 238.59 136.68 231.9 108.06 208.83C100.69 202.89 94.59 195.23 88.55 187.84C86.67 185.54 86.9 181.51 85.84 176.85C83.39 175.5 79.4 173.3 75.39 171.1C52.26 158.44 29.21 145.61 5.95002 133.2C-3.31998 128.25 -0.299977 122.25 5.09002 116.56C7.72002 113.79 10.99 115.1 13.97 116.94C28.7 126 43.48 134.99 58.24 144C69.71 151 81.11 158.13 92.7 164.93C95.57 166.61 96.05 169.19 97.32 171.7C98.81 174.65 98.19 176.74 96.29 179.03C94.04 181.74 94.78 184.18 97.98 185.03C104.18 186.68 110.47 188.71 116.8 189.02C144.95 190.39 172.3 185.21 199.25 177.64C220.62 171.64 241.45 164.14 260.39 152.38C267.18 148.16 273.35 142.77 279.19 137.26C282.82 133.84 281.98 131.84 277.55 129.71C273.377 127.703 272.05 124.1 273.57 118.9L273.6 118.89Z" fill="white"/>
<path d="M105.9 58.34C115.78 57.82 123.94 60.12 130.91 66.05C133.57 68.31 135.97 70.86 138.53 73.23C141.02 75.53 143.6 78.14 147.35 76.86C151.5 75.44 152.93 71.71 153.5 67.75C154.21 62.83 153.42 58.07 151.24 53.58C150.8 52.68 150.44 51.75 149.95 50.89C143.16 39 146.57 29.82 154.68 20.16C163.55 9.59 175.92 4.83 188.68 0.93C189.97 0.54 191.29 0.26 192.34 0C190.29 6.08 187.61 12 186.32 18.21C183.49 31.81 184.27 45.15 193.14 56.66C198.58 63.71 206.1 67.48 215.14 65.72C223.2 64.15 228.61 58.97 230.89 50.91C232.33 45.82 231.25 40.98 228.64 36.55C226.94 33.67 224.78 31.07 223.05 27.84C226.65 30.27 230.48 32.43 233.81 35.19C242.44 42.32 249.69 50.68 254.85 60.69C255.39 61.74 255.72 63.48 255.22 64.42C247.36 79.28 239.35 94.06 231.21 109.17C230.22 108.56 229.39 108.13 228.65 107.57C200.91 86.6 163.12 99.19 153.51 132.52C153.11 133.91 151.65 135.57 150.31 136.02C130.46 142.83 116.29 155.79 107.59 174.83C107.25 175.57 106.78 176.25 106.1 177.42C102.12 170.53 100.26 163.55 99.6901 156.18C98.6201 142.36 102.06 129.8 110.2 118.5C116.09 110.32 119.72 101.14 119.69 91.03C119.66 78.69 116.19 67.44 105.9 58.34Z" fill="#FD9042"/>
<path d="M200.25 171.38C178.6 177.69 157.06 182.01 134.76 183.51C143.55 163.2 175.4 150.51 200.25 171.38Z" fill="#FD9042"/>
<path d="M237.64 117.48C235.14 115.89 234.89 114.22 236.31 111.6C254.69 77.7499 272.97 43.8499 291.21 9.91991C292.49 7.53991 293.68 6.35991 296.33 8.10991C298.64 9.62991 301.2 10.4699 298.93 14.2699C278.76 48.1199 258.75 82.0599 238.68 115.97C238.37 116.49 237.99 116.97 237.64 117.47V117.48Z" fill="white"/>
<path d="M240.44 118.84C244.21 112.8 247.8 106.99 251.44 101.23C268.88 73.67 286.33 46.11 303.79 18.56C306.13 14.86 307.51 14.57 312.02 18.46C312.19 18.61 312.36 18.78 312.45 18.98C313.05 20.3 311.88 22.06 311.08 23.23C299.49 40.2 287.78 57.08 276.11 74C266.28 88.25 256.45 102.49 246.68 116.78C245.21 118.92 243.73 120.45 240.44 118.83V118.84Z" fill="white"/>
<path d="M216.95 165.55C214.24 167.68 212.31 167.2 210.01 164.97C182.8 138.44 139.1 146.33 123 180.67C121.6 183.65 119.73 183.97 117.04 183.27C120.17 169.46 136.16 150.8 158.84 145.57C181.82 140.27 205.72 150.46 216.94 165.56L216.95 165.55Z" fill="#FD9042"/>
<path d="M224.52 119.08C220.45 121.4 217.55 120.9 214.03 118.77C200.21 110.43 182.57 114.91 174.03 128.93C171.85 132.52 169.43 133.21 165.56 132.52C170.36 120.2 179.01 112.45 191.63 109.54C204.08 106.67 214.81 110.52 224.52 119.08Z" fill="#FD9042"/>
<path d="M212.63 145.68C211.14 144.69 209.81 143.8 208.08 142.65C213.04 136.31 219.31 132.51 226.7 130.7C239.11 127.65 250.12 130.71 259.65 139.14C262.82 141.94 262.59 143.68 258.92 146.42C240.52 131.94 230.1 131.73 212.63 145.67V145.68Z" fill="#FD9042"/>
<path d="M251.13 120.25C256.3 112.78 261.29 105.57 266.52 98.01V129.07C260.94 125.88 256.25 123.19 251.13 120.26V120.25Z" fill="#FD9042"/>
<path d="M248.53 152.88C242.35 155.63 236.61 158.27 230.78 160.67C229.94 161.02 228.28 160.53 227.58 159.85C225.56 157.86 223.84 155.58 222.03 153.44C227.71 145.28 240.46 144.76 248.53 152.88Z" fill="#FD9042"/>
<path d="M206.32 127.76C203.65 130.59 201.27 133.29 198.67 135.76C197.92 136.47 196.44 137.02 195.49 136.8C191.91 135.97 188.4 134.79 184.84 133.73C189.1 126.79 198.2 124.21 206.32 127.76Z" fill="#FD9042"/>
</g>
<defs>
<clipPath id="clip0_3247_2733">
<rect width="312.62" height="233.66" fill="white"/>
</clipPath>
</defs>
</svg>
